HIERARCHY
ROOT hip
{
  OFFSET 0 0 0
  CHANNELS 6 Xposition Yposition Zposition Zrotation Yrotation Xrotation
  JOINT abdomen
  {
    OFFSET 0 20.6881 -0.73152
    CHANNELS 3 Zrotation Xrotation Yrotation
    JOINT chest
    {
      OFFSET 0 11.7043 -0.48768
      CHANNELS 3 Zrotation Xrotation Yrotation
      JOINT neck
      {
        OFFSET 0 22.1894 -2.19456
        CHANNELS 3 Zrotation Xrotation Yrotation
        JOINT head
        {
          OFFSET -0.24384 7.07133 1.2192
          CHANNELS 3 Zrotation Xrotation Yrotation
          JOINT leftEye
          {
            OFFSET 4.14528 8.04674 8.04672
            CHANNELS 3 Zrotation Xrotation Yrotation
            End Site
            {
              OFFSET 1 0 0
            }
          }
          JOINT rightEye
          {
            OFFSET -3.6576 8.04674 8.04672
            CHANNELS 3 Zrotation Xrotation Yrotation
            End Site
            {
              OFFSET 1 0 0
            }
          }
        }
      }
      JOINT rCollar
      {
        OFFSET -2.68224 19.2634 -4.8768
        CHANNELS 3 Zrotation Xrotation Yrotation
        JOINT rShldr
        {
          OFFSET -8.77824 -1.95073 1.46304
          CHANNELS 3 Zrotation Xrotation Yrotation
          JOINT rForeArm
          {
            OFFSET -28.1742 -1.7115 0.48768
            CHANNELS 3 Zrotation Xrotation Yrotation
            JOINT rHand
            {
              OFFSET -22.5879 0.773209 7.07136
              CHANNELS 3 Zrotation Xrotation Yrotation
              JOINT rThumb1
              {
                OFFSET -1.2192 -0.487915 3.41376
                CHANNELS 3 Zrotation Xrotation Yrotation
                JOINT rThumb2
                {
                  OFFSET -3.37035 -0.52449 3.41376
                  CHANNELS 3 Zrotation Xrotation Yrotation
                  End Site
                  {
                    OFFSET -1.78271 -1.18214 1.43049
                  }
                }
              }
              JOINT rIndex1
              {
                OFFSET -7.75947 0.938293 5.60832
                CHANNELS 3 Zrotation Xrotation Yrotation
                JOINT rIndex2
                {
                  OFFSET -2.54057 -0.884171 1.56538
                  CHANNELS 3 Zrotation Xrotation Yrotation
                  End Site
                  {
                    OFFSET -1.62519 -0.234802 1.16502
                  }
                }
              }
              JOINT rMid1
              {
                OFFSET -8.24714 1.18213 3.41376
                CHANNELS 3 Zrotation Xrotation Yrotation
                JOINT rMid2
                {
                  OFFSET -3.10165 -0.590103 1.0647
                  CHANNELS 3 Zrotation Xrotation Yrotation
                  End Site
                  {
                    OFFSET -2.48547 -0.328903 0.83742
                  }
                }
              }
              JOINT rRing1
              {
                OFFSET -8.82822 0.546677 1.51678
                CHANNELS 3 Zrotation Xrotation Yrotation
                JOINT rRing2
                {
                  OFFSET -2.60934 -0.819778 -0.0198488
                  CHANNELS 3 Zrotation Xrotation Yrotation
                  End Site
                  {
                    OFFSET -2.33842 -0.294052 0.168128
                  }
                }
              }
              JOINT rPinky1
              {
                OFFSET -8.27202 -0.0477905 -0.4584
                CHANNELS 3 Zrotation Xrotation Yrotation
                JOINT rPinky2
                {
                  OFFSET -1.82734 -0.647385 -0.700984
                  CHANNELS 3 Zrotation Xrotation Yrotation
                  End Site
                  {
                    OFFSET -1.69225 -0.51767 -0.607171
                  }
                }
              }
            }
          }
        }
      }
      JOINT lCollar
      {
        OFFSET 2.68224 19.2634 -4.8768
        CHANNELS 3 Zrotation Xrotation Yrotation
        JOINT lShldr
        {
          OFFSET 8.77824 -1.95073 1.46304
          CHANNELS 3 Zrotation Xrotation Yrotation
          JOINT lForeArm
          {
            OFFSET 28.1742 -1.7115 0.48768
            CHANNELS 3 Zrotation Xrotation Yrotation
            JOINT lHand
            {
              OFFSET 22.5879 0.773209 7.07136
              CHANNELS 3 Zrotation Xrotation Yrotation
              JOINT lThumb1
              {
                OFFSET 1.2192 -0.487915 3.41376
                CHANNELS 3 Zrotation Xrotation Yrotation
                JOINT lThumb2
                {
                  OFFSET 3.37035 -0.52449 3.41376
                  CHANNELS 3 Zrotation Xrotation Yrotation
                  End Site
                  {
                    OFFSET 1.78271 -1.18214 1.43049
                  }
                }
              }
              JOINT lIndex1
              {
                OFFSET 7.75947 0.938293 5.60832
                CHANNELS 3 Zrotation Xrotation Yrotation
                JOINT lIndex2
                {
                  OFFSET 2.54057 -0.884171 1.56538
                  CHANNELS 3 Zrotation Xrotation Yrotation
                  End Site
                  {
                    OFFSET 1.62519 -0.234802 1.16502
                  }
                }
              }
              JOINT lMid1
              {
                OFFSET 8.24714 1.18213 3.41376
                CHANNELS 3 Zrotation Xrotation Yrotation
                JOINT lMid2
                {
                  OFFSET 3.10165 -0.590103 1.0647
                  CHANNELS 3 Zrotation Xrotation Yrotation
                  End Site
                  {
                    OFFSET 2.48547 -0.328903 0.83742
                  }
                }
              }
              JOINT lRing1
              {
                OFFSET 8.82822 0.546677 1.51678
                CHANNELS 3 Zrotation Xrotation Yrotation
                JOINT lRing2
                {
                  OFFSET 2.60934 -0.819778 -0.0198488
                  CHANNELS 3 Zrotation Xrotation Yrotation
                  End Site
                  {
                    OFFSET 2.33842 -0.294052 0.168128
                  }
                }
              }
              JOINT lPinky1
              {
                OFFSET 8.27202 -0.0477905 -0.4584
                CHANNELS 3 Zrotation Xrotation Yrotation
                JOINT lPinky2
                {
                  OFFSET 1.82734 -0.647385 -0.700984
                  CHANNELS 3 Zrotation Xrotation Yrotation
                  End Site
                  {
                    OFFSET 1.69225 -0.51767 -0.607171
                  }
                }
              }
            }
          }
        }
      }
    }
  }
  JOINT rButtock
  {
    OFFSET -8.77824 4.35084 1.2192
    CHANNELS 3 Zrotation Xrotation Yrotation
    JOINT rThigh
    {
      OFFSET 0 -1.70687 -2.19456
      CHANNELS 3 Zrotation Xrotation Yrotation
      JOINT rShin
      {
        OFFSET 0 -36.8199 0.73152
        CHANNELS 3 Zrotation Xrotation Yrotation
        JOINT rFoot
        {
          OFFSET 0.73152 -45.1104 -5.12064
          CHANNELS 3 Zrotation Xrotation Yrotation
          End Site
          {
            OFFSET -1.1221 -3.69964 12.103
          }
        }
      }
    }
  }
  JOINT lButtock
  {
    OFFSET 8.77824 4.35084 1.2192
    CHANNELS 3 Zrotation Xrotation Yrotation
    JOINT lThigh
    {
      OFFSET 0 -1.70687 -2.19456
      CHANNELS 3 Zrotation Xrotation Yrotation
      JOINT lShin
      {
        OFFSET 0 -36.8199 0.73152
        CHANNELS 3 Zrotation Xrotation Yrotation
        JOINT lFoot
        {
          OFFSET -0.73152 -45.1104 -5.12064
          CHANNELS 3 Zrotation Xrotation Yrotation
          End Site
          {
            OFFSET 1.1221 -3.69964 12.103
          }
        }
      }
    }
  }
}
MOTION
Frames:	4
Frame Time:	0.03333
0.4313999914302258 63.383299112319946 4.299999994691461 342.3339989372415 -28.5167996433484 372.2630136160236 14.512500788045246 8.149629745950183 -1.5075499620951056 6.145410198639728 -7.591809903982533 0.08616539770064961 2.1428399440631547 12.484499802705276 8.367370200274664 -0.4897990018796968 -21.760299676743625 16.25379946033205 -0.0 0.0 0.0 -0.0 0.0 0.0 1.2043900019687266e-13 5.215619995643137e-13 9.511659983625964e-13 104.31999953340848 47.84729879644772 -55.910801564511324 -26.831800512842715 -44.451400458103656 92.34619980513423 -9.548689837042451 -62.51090215195386 -15.670400559922705 -1.1171400141639215e-09 4.324779901725447e-09 1.2404099646614085e-09 -1.9830299246342893e-09 7.446549981288814e-09 2.0936999089764907e-09 -1.1171299755382082e-09 4.324769962492067e-09 1.2404000254280291e-09 7.730910121524428 5.474879855648998 0.41731399283890674 -1.1171400141639215e-09 4.324779901725447e-09 1.2404000254280291e-09 2.90554006136521 0.9651829962377875 0.10290200252939893 -1.1171299755382082e-09 4.324779901725447e-09 1.2404099646614085e-09 10.278599710243157 0.7318009818271524 0.025912300303053633 -1.1171400141639215e-09 4.324779901725447e-09 1.2404099646614085e-09 2.221669932038622 -0.7334870246959406 -0.20891999872313852 1.203960013649669e-13 5.215669982998513e-13 9.508880104290114e-13 -3.454810000595884 -34.93960047276845 -85.37709824778176 28.293800797136655 -32.82820117011533 -71.79269893208348 0.11133399779180529 -9.478899817876908 1.3445599839923277 -3.669339939494819e-09 -1.2863699737318945e-09 7.467109881888464e-09 -6.383989875736147e-09 -2.3047899438458753e-09 1.2867699682400219e-08 -3.669339939494819e-09 -1.2863800123576077e-09 7.467149638821983e-09 -7.730910121524428 5.474879855648998 -0.41731399283890674 -3.669339939494819e-09 -1.2863800123576077e-09 7.467120218691178e-09 -2.90554006136521 0.9651829962377875 -0.10290200252939893 -3.6693498787281985e-09 -1.2863800123576077e-09 7.467129760355223e-09 -10.278599710243157 0.7318009818271524 -0.025912300303053633 -3.669339939494819e-09 -1.2863699737318945e-09 7.467120218691178e-09 -2.221669932038622 -0.7334870246959406 0.20891999872313852 -2.0321699793705798e-16 0.0 -3.882510030490358e-19 -11.109799581287858 5.374809900345495 -9.668340237149089 -0.0936587021895354 37.04469892591223 1.7633100241042297 -11.588799894007206 -15.475400366666133 -27.535900808717237 2.0321699793705798e-16 0.0 3.882510030490358e-19 84.99960052254433 -50.42489949108922 72.75139794436481 7.943770405686936 83.00739826619169 -8.146310274013555 -1.747029948052387 -7.028740207864083 -8.423480204306319
0.42871999139606487 63.349199295043945 4.287999994994607 342.36899682654865 -28.58049969509523 372.2830124099134 14.476300785444177 8.207840033151616 -1.4319299495861326 6.012259929638561 -7.522289677289204 0.09703789826075954 2.255770078356734 12.481399750595738 8.398569650629636 -0.6865709888956519 -22.00769937376524 16.277699999785217 -0.0 0.0 0.0 -0.0 0.0 0.0 1.1038900600001142e-13 4.865219796683873e-13 6.713990002404022e-13 104.27500224715644 47.702601238880995 -55.726601607879836 -26.834199616788684 -44.44479908027084 92.33419916276252 -9.686239601642752 -62.73549926243139 -15.82530071256213 -1.1969000014670713e-10 2.208570014560233e-09 8.540009970710569e-10 -2.495400088944315e-10 3.883029879031632e-09 1.4768099591548756e-09 -1.196839993345542e-10 2.208560075326853e-09 8.539909584453435e-10 7.730910121524428 5.474879855648998 0.41731399283890674 -1.1969099407004508e-10 2.208570014560233e-09 8.539919523686815e-10 2.90554006136521 0.9651829962377875 0.10290200252939893 -1.1968500568193388e-10 2.208570014560233e-09 8.539980153010431e-10 10.278599710243157 0.7318009818271524 0.025912300303053633 -1.1968799987598948e-10 2.208570014560233e-09 8.540059666877467e-10 2.221669932038622 -0.7334870246959406 -0.20891999872313852 1.1031199878045558e-13 4.865349860870677e-13 6.710919905218515e-13 -3.850449988929342 -35.247601023201 -85.50379825688549 28.276899494035458 -32.65629896908445 -71.51279777989636 0.11310299677651876 -9.548210016253257 1.3546000419071291 -2.4783299525765663e-09 -1.188119956028474e-09 4.715029985447668e-09 -4.310589857014097e-09 -2.1061899472105982e-09 8.121369858332268e-09 -2.4783400905946135e-09 -1.1881299946541872e-09 4.715070139950522e-09 -7.730910121524428 5.474879855648998 -0.41731399283890674 -2.4783299525765663e-09 -1.1881299946541872e-09 4.715039924681048e-09 -2.90554006136521 0.9651829962377875 -0.10290200252939893 -2.4783400905946135e-09 -1.1881299946541872e-09 4.7150498639144275e-09 -10.278599710243157 0.7318009818271524 -0.025912300303053633 -2.4783299525765663e-09 -1.188119956028474e-09 4.715039924681048e-09 -2.221669932038622 -0.7334870246959406 0.20891999872313852 -2.0321699793705798e-16 0.0 -3.882510030490358e-19 -11.214800079398463 5.235509899770378 -9.77048998505486 -0.0969839971292333 37.25110041244084 1.7672899966779372 -11.62780027416798 -15.52479970983825 -27.546800083085284 2.0321699793705798e-16 0.0 3.882510030490358e-19 84.96760108628281 -50.51210051622277 72.64940272948901 8.025830005922762 83.06669796856573 -8.222859619136473 -1.7197000133056388 -7.159219872899775 -8.24614971043257
0.4431199919054052 63.308000564575195 4.256999994686339 342.39598973414854 -28.532300757669745 372.30598916628134 14.430200423641176 8.303080190938273 -1.25925999260386 5.812759922379421 -7.4803301176705235 0.13404899916597934 2.4505299343318856 12.322499668423621 8.40831974566983 -0.853692004146671 -22.111299683095993 16.254499554721978 -0.0 0.0 0.0 -0.0 0.0 0.0 -3.2730099350870045e-13 -6.58859987598571e-13 -3.2734299744663997e-13 104.20499963835297 47.43309904970521 -55.4370015870713 -26.841600126754393 -44.42480028638104 92.29700195254263 -9.886610031134246 -63.05509747407463 -16.050399841943655 1.2147500446300313e-09 -1.840339904821121e-09 -1.855289977860923e-10 2.097770025045426e-09 -3.034309994224478e-09 -2.581690028337427e-10 1.214759983863411e-09 -1.8403500428391681e-09 -1.8554400602849545e-10 7.730910121524428 5.474879855648998 0.41731399283890674 1.2147500446300313e-09 -1.840339904821121e-09 -1.8553699886896285e-10 2.90554006136521 0.9651829962377875 0.10290200252939893 1.2147500446300313e-09 -1.840339904821121e-09 -1.855289977860923e-10 10.278599710243157 0.7318009818271524 0.025912300303053633 1.2147500446300313e-09 -1.840339904821121e-09 -1.8552400332131907e-10 2.221669932038622 -0.7334870246959406 -0.20891999872313852 -3.2760300449171356e-13 -6.588419824443532e-13 -3.2765100205915693e-13 -4.370679884799825 -35.55240163000741 -85.8754015288692 28.255000200009103 -32.45039950145983 -71.18059786923445 0.10301299977351826 -9.119600277909324 1.2927099902903512 1.6876400830713844e-09 4.259140011778738e-09 -5.672560025247038e-10 2.916930033427726e-09 7.373619862442855e-09 -9.730870272774126e-10 1.6876299450533372e-09 4.259140011778738e-09 -5.672329931994302e-10 -7.730910121524428 5.474879855648998 -0.41731399283890674 1.6876400830713844e-09 4.259140011778738e-09 -5.6725302075469e-10 -2.90554006136521 0.9651829962377875 -0.10290200252939893 1.6876400830713844e-09 4.259140011778738e-09 -5.672540146780279e-10 -10.278599710243157 0.7318009818271524 -0.025912300303053633 1.6876400830713844e-09 4.259140011778738e-09 -5.672630096842364e-10 -2.221669932038622 -0.7334870246959406 0.20891999872313852 -2.0321699793705798e-16 0.0 -3.882510030490358e-19 -11.298100212742293 4.986079929017975 -9.90151008880863 -0.10195700183502404 37.53129867785686 1.7698999827145283 -11.636199699299802 -15.340200187140315 -27.72019980309169 2.0321699793705798e-16 0.0 3.882510030490358e-19 84.9855986347458 -50.68100084911343 72.57229672394874 8.095460369416458 83.11429755689156 -8.28582030290565 -1.6718700128170376 -7.313980006661216 -7.982999597184905
0.47992999279813375 63.25870156288147 4.249999994499376 342.4630075502847 -28.554500580019578 372.3960110595421 14.273499662381806 8.511519635160491 -1.1195000214768243 5.67897017691721 -7.54978033492486 0.17272099663806265 2.2778800410303 11.837699671325288 8.361670407412289 -0.4097099912606991 -21.68699979411834 16.247800846693487 -0.0 0.0 0.0 -0.0 0.0 0.0 -4.723310062599189e-13 -9.474589749130585e-13 -6.363610186638213e-13 104.1770026929451 47.23109962009667 -55.293898878675776 -26.84580069309395 -44.41419983278919 92.27569859252135 -10.092899673315204 -63.3758021763634 -16.281499292511036 1.7909999600475775e-09 -3.264639999500706e-09 -5.026310076983832e-10 3.1044300930093633e-09 -5.4485899366257324e-09 -7.782329786143957e-10 1.7909999600475775e-09 -3.2646499387340853e-09 -5.026460159407864e-10 7.730910121524428 5.474879855648998 0.41731399283890674 1.7909999600475775e-09 -3.264630060267326e-09 -5.026329955450591e-10 2.90554006136521 0.9651829962377875 0.10290200252939893 1.7909999600475775e-09 -3.264639999500706e-09 -5.026279762322025e-10 10.278599710243157 0.7318009818271524 0.025912300303053633 1.790990020814198e-09 -3.264630060267326e-09 -5.026210187688367e-10 2.221669932038622 -0.7334870246959406 -0.20891999872313852 -4.726369968187969e-13 -9.474410182902536e-13 -6.366390065974062e-13 -4.759210073094123 -35.83750055615291 -86.1333982643881 28.230000000099565 -32.22730161750512 -70.81939697535665 0.09846330004360301 -8.906979904141414 1.2621099957567534 2.7616100309744666e-09 5.6387199173596045e-09 -1.9621899364380023e-09 4.7799701533644554e-09 9.775519893315848e-09 -3.3741999702590765e-09 2.761600091741087e-09 5.638729856592984e-09 -1.962170057971243e-09 -7.730910121524428 5.474879855648998 -0.41731399283890674 2.7616100309744666e-09 5.6387199173596045e-09 -1.9621899364380023e-09 -2.90554006136521 0.9651829962377875 -0.10290200252939893 2.7616100309744666e-09 5.6387199173596045e-09 -1.9621899364380023e-09 -10.278599710243157 0.7318009818271524 -0.025912300303053633 2.7616100309744666e-09 5.638729856592984e-09 -1.9622000744560495e-09 -2.221669932038622 -0.7334870246959406 0.20891999872313852 -2.0321699793705798e-16 0.0 -3.882510030490358e-19 -11.429799920318478 4.706899788675112 -9.96918957952064 -0.107510999507089 37.83109958619082 1.7717999492425556 -11.636400336106671 -15.075400583208092 -27.956300659678814 2.0321699793705798e-16 0.0 3.882510030490358e-19 84.93400338575552 -50.91870167751363 72.45660014959789 8.174839974176699 83.16749790033678 -8.357159921239141 -1.5259199693112664 -7.598969649779999 -7.295279802487368
